<svg xmlns="http://www.w3.org/2000/svg" width="18" height="18" viewBox="0 0 18 18">
  <path fill="#000" fill-rule="evenodd" d="M2.06 13.28C1.56 13.08 1.49 12.37 1.96 11.79C2.9 10.62 3.18 9.45 3.31 7.72C3.5 4.23 5.59 1.72 8.45 1.72C11.2 1.72 13.12 3.92 13.3 7.06C13.37 8.2 13.62 8.97 14.1 9.58C14.5 10.1 14.42 10.71 13.98 11.05C13.52 11.39 13.08 11.12 12.58 10.93C12.08 10.74 11.72 11.03 11.21 11.45C10.64 11.92 10.01 12.13 9.38 11.88C8.9 11.69 8.76 11.42 8.35 11.42C7.89 11.42 7.66 11.76 7.16 11.91C6.57 12.09 6.02 11.83 5.54 11.63C5.04 11.42 4.66 11.54 4.27 11.95C3.79 12.45 3.18 13.72 2.06 13.28ZM5.87 7.35A.76 1.13 0 1 0 7.39 7.35A.76 1.13 0 1 0 5.87 7.35ZM9.46 7.35A.76 1.13 0 1 0 10.98 7.35A.76 1.13 0 1 0 9.46 7.35ZM7.43 9.91C7.79 9.55 8.53 9.55 8.9 9.91L8.67 10.18C8.45 9.98 7.88 9.98 7.66 10.18Z"/>
  <path d="M11.46 9.92C11.64 9.05 12.25 8.52 13.02 8.52C14.01 8.52 14.8 9.31 14.8 10.3" fill="none" stroke="#000" stroke-width="1.15" stroke-linecap="round"/>
  <circle cx="13.08" cy="12.72" r="3.08" fill="none" stroke="#000" stroke-width="1.65"/>
  <path d="M13.08 12.72V11.25M13.08 12.72H14.17" fill="none" stroke="#000" stroke-width="1.28" stroke-linecap="round"/>
  <circle cx="13.08" cy="12.72" r=".47" fill="#000"/>
</svg>
